<svg xmlns="http://www.w3.org/2000/svg" viewBox="0 0 398.46 146.91"><defs><style>.cls-1,.cls-2,.cls-3{fill:none;stroke-miterlimit:10;}.cls-1,.cls-2{stroke:#0146a0;}.cls-1,.cls-3{stroke-width:3px;}.cls-2{stroke-width:0.75px;}.cls-3{stroke:#666;}</style></defs><g id="Layer_2" data-name="Layer 2"><g id="Layer_4" data-name="Layer 4"><rect class="cls-1" x="169.95" y="22.91" width="58.91" height="6.08" rx="2.03"/><path class="cls-1" d="M223.16,2.7V22.21a.7.7,0,0,1-.69.7H176a.7.7,0,0,1-.69-.7V2.7A.69.69,0,0,1,176,2h16.45a.19.19,0,0,1,.18.17l1,14.34a.42.42,0,0,0,.83,0l1.37-14.35A.17.17,0,0,1,196,2h7.21a.19.19,0,0,1,.18.17l1,14.34a.42.42,0,0,0,.83,0l1.37-14.35a.18.18,0,0,1,.18-.16h15.76A.69.69,0,0,1,223.16,2.7Z"/><rect class="cls-1" x="175.27" y="53.69" width="47.89" height="30.02" rx="1.79"/><path class="cls-1" d="M225.78,144.9H173a2.36,2.36,0,0,1-2.36-2.32l-1.85-113.1a.48.48,0,0,1,.48-.49h60.21a.48.48,0,0,1,.48.49l-1.85,113.1A2.36,2.36,0,0,1,225.78,144.9Z"/><circle class="cls-2" cx="185.12" cy="98.95" r="2.14"/><circle class="cls-2" cx="194.74" cy="98.95" r="2.14"/><circle class="cls-2" cx="204.35" cy="98.95" r="2.14"/><circle class="cls-2" cx="213.96" cy="98.95" r="2.14"/><circle class="cls-2" cx="189.86" cy="103.86" r="2.14"/><circle class="cls-2" cx="199.47" cy="103.86" r="2.14"/><circle class="cls-2" cx="209.08" cy="103.86" r="2.14"/><circle class="cls-2" cx="185.02" cy="108.82" r="2.14"/><circle class="cls-2" cx="194.63" cy="108.82" r="2.14"/><circle class="cls-2" cx="204.25" cy="108.82" r="2.14"/><circle class="cls-2" cx="213.86" cy="108.82" r="2.14"/><circle class="cls-2" cx="189.75" cy="113.99" r="2.14"/><circle class="cls-2" cx="199.36" cy="113.99" r="2.14"/><circle class="cls-2" cx="208.98" cy="113.99" r="2.14"/><circle class="cls-2" cx="184.92" cy="118.95" r="2.14"/><circle class="cls-2" cx="194.53" cy="118.95" r="2.14"/><circle class="cls-2" cx="204.14" cy="118.95" r="2.14"/><circle class="cls-2" cx="213.75" cy="118.95" r="2.14"/><circle class="cls-2" cx="189.65" cy="123.86" r="2.14"/><circle class="cls-2" cx="199.26" cy="123.86" r="2.14"/><circle class="cls-2" cx="208.88" cy="123.86" r="2.14"/><circle class="cls-2" cx="184.82" cy="128.82" r="2.14"/><circle class="cls-2" cx="194.43" cy="128.82" r="2.14"/><circle class="cls-2" cx="204.04" cy="128.82" r="2.14"/><circle class="cls-2" cx="213.65" cy="128.82" r="2.14"/><path class="cls-3" d="M308.39,39.63c1.72,1.45,18.52,16.09,16.63,38.8-1.4,16.75-14.07,25.42-16.78,27.9"/><path class="cls-3" d="M336,23.72c2.57,2.17,27.68,24.05,24.85,58-2.09,25-21,38-25.08,41.7"/><path class="cls-3" d="M360.59,1.15c3.73,3.14,40.16,34.88,36.05,84.11-3,36.32-30.49,55.12-36.37,60.5"/><path class="cls-3" d="M90.08,107.27c-1.72-1.45-18.53-16.09-16.63-38.8,1.4-16.75,14.06-25.42,16.78-27.9"/><path class="cls-3" d="M62.45,123.18c-2.57-2.16-27.69-24-24.85-58,2.09-25,21-38,25.07-41.7"/><path class="cls-3" d="M37.87,145.76c-3.73-3.14-40.16-34.89-36-84.12,3-36.31,30.5-55.11,36.38-60.49"/></g></g></svg>