<svg xmlns="http://www.w3.org/2000/svg" viewBox="0 0 130.07 123.13"><defs><style>.cls-1{fill:none;}.cls-1,.cls-2{stroke:#666;stroke-miterlimit:10;stroke-width:4px;}.cls-2,.cls-3{fill:#fff;}</style></defs><g id="Layer_2" data-name="Layer 2"><g id="Layer_5" data-name="Layer 5"><rect class="cls-1" x="13.98" y="19.43" width="49.11" height="5.07" rx="1.27"/><path class="cls-1" d="M58.34,2.58V18.85a.58.58,0,0,1-.58.58H19a.58.58,0,0,1-.57-.58V2.58A.58.58,0,0,1,19,2H32.7a.15.15,0,0,1,.15.14l.83,12a.35.35,0,0,0,.69,0l1.14-12A.15.15,0,0,1,35.66,2h6a.14.14,0,0,1,.14.14l.83,12a.35.35,0,0,0,.69,0l1.15-12A.14.14,0,0,1,44.62,2H57.76A.58.58,0,0,1,58.34,2.58Z"/><path class="cls-1" d="M60.52,121.13h-44a2,2,0,0,1-2-1.93L13,24.9a.39.39,0,0,1,.4-.4H63.63a.39.39,0,0,1,.4.4l-1.54,94.3A2,2,0,0,1,60.52,121.13Z"/><rect class="cls-2" x="2" y="48.83" width="36.02" height="16.01" rx="8"/><rect class="cls-2" x="2" y="64.84" width="36.02" height="16.01" rx="8"/><rect class="cls-2" x="2" y="80.85" width="36.02" height="16.01" rx="8"/><rect class="cls-2" x="2" y="96.86" width="36.02" height="16.01" rx="8"/><path class="cls-1" d="M128.07,58.84H98.2a2.75,2.75,0,0,0-2.75,2.75v53.65A2.75,2.75,0,0,0,98.2,118h27.12a2.75,2.75,0,0,0,2.75-2.75V74.85"/><path class="cls-1" d="M95.05,67.84,70.22,42.37a6.33,6.33,0,0,0-4.49-1.87H63.58a6.4,6.4,0,0,0-5,2.48L48.31,56.23A6.38,6.38,0,0,0,47.26,62l.11.36a6.35,6.35,0,0,0,6.08,4.5h.71a6.4,6.4,0,0,0,4.08-1.47L65,57.84"/><path class="cls-3" d="M65.7,43.1,62.3,43a1.48,1.48,0,0,0-1.23,1.34v14.5L63.55,57c.29-.25,2.81-.42,2.48,0Z"/></g></g></svg>