<svg xmlns="http://www.w3.org/2000/svg" viewBox="0 0 562.95 145.9"><defs><style>.cls-1,.cls-2,.cls-3{fill:none;}.cls-1,.cls-4{stroke:#0146a0;}.cls-1,.cls-2,.cls-3,.cls-4,.cls-5,.cls-6{stroke-miterlimit:10;}.cls-1,.cls-2{stroke-width:3px;}.cls-2,.cls-3,.cls-5,.cls-6{stroke:#666;}.cls-4,.cls-7{fill:#0146a0;}.cls-4,.cls-5{stroke-width:2px;}.cls-5,.cls-6{fill:#666;}.cls-6{font-size:89.3px;font-family:TTSsanaiR, "210 Ssanai";}</style></defs><g id="Layer_2" data-name="Layer 2"><g id="Layer_3" data-name="Layer 3"><path class="cls-1" d="M61.2,85.31h59.16a23.29,23.29,0,0,1,23.14,23.43h0v29.9H109.77"/><path class="cls-1" d="M143.5,133.26c-3.41-.14-6.14-3.34-6.42-7.16-.31-4.29,2.56-8.39,6.42-8.59"/><path class="cls-1" d="M141.7,99.47c-3,3.79-9.21,4.08-14.16,1C122,97,119.3,90,122.26,85.44"/><path class="cls-1" d="M61.2,101.77a32.07,32.07,0,0,1,32.21,9.3c10,11.29,6.82,25.92,6.49,27.6"/><path class="cls-1" d="M61.26,120.07c5.7-4.08,14.1-4.15,19.26.31,5.48,4.72,7.54,11.94,3.64,18.29"/><line class="cls-1" x1="138.13" y1="110" x2="92.4" y2="110"/><line class="cls-1" x1="61.26" y1="85" x2="122.08" y2="46.36"/><rect class="cls-2" x="2.63" y="22.4" width="58.91" height="6.08" rx="2.03"/><path class="cls-2" d="M55.84,2.19V21.71a.69.69,0,0,1-.69.69H8.64A.69.69,0,0,1,8,21.71V2.19a.69.69,0,0,1,.69-.69H25.09a.18.18,0,0,1,.18.16l1,14.35a.42.42,0,0,0,.83,0L28.46,1.66a.18.18,0,0,1,.18-.16h7.2a.18.18,0,0,1,.18.16L37,16a.42.42,0,0,0,.83,0L39.21,1.66a.18.18,0,0,1,.18-.16H55.15A.69.69,0,0,1,55.84,2.19Z"/><rect class="cls-2" x="7.95" y="53.19" width="47.89" height="30.02" rx="1.79"/><path class="cls-2" d="M58.46,144.4H5.71a2.36,2.36,0,0,1-2.36-2.32L1.5,29A.48.48,0,0,1,2,28.48H62.19a.48.48,0,0,1,.48.49L60.82,142.08A2.36,2.36,0,0,1,58.46,144.4Z"/><circle class="cls-3" cx="17.66" cy="92.51" r="2.14"/><circle class="cls-3" cx="27.27" cy="92.51" r="2.14"/><circle class="cls-3" cx="36.88" cy="92.51" r="2.14"/><circle class="cls-3" cx="46.49" cy="92.51" r="2.14"/><circle class="cls-3" cx="22.64" cy="97.49" r="2.14"/><circle class="cls-3" cx="32.25" cy="97.49" r="2.14"/><circle class="cls-3" cx="41.86" cy="97.49" r="2.14"/><circle class="cls-3" cx="17.81" cy="102.45" r="2.14"/><circle class="cls-3" cx="27.42" cy="102.45" r="2.14"/><circle class="cls-3" cx="37.03" cy="102.45" r="2.14"/><circle class="cls-3" cx="46.64" cy="102.45" r="2.14"/><circle class="cls-3" cx="22.54" cy="107.36" r="2.14"/><circle class="cls-3" cx="32.15" cy="107.36" r="2.14"/><circle class="cls-3" cx="41.76" cy="107.36" r="2.14"/><circle class="cls-3" cx="17.71" cy="112.32" r="2.14"/><circle class="cls-3" cx="27.32" cy="112.32" r="2.14"/><circle class="cls-3" cx="36.93" cy="112.32" r="2.14"/><circle class="cls-3" cx="46.54" cy="112.32" r="2.14"/><circle class="cls-3" cx="22.44" cy="117.49" r="2.14"/><circle class="cls-3" cx="32.05" cy="117.49" r="2.14"/><circle class="cls-3" cx="41.66" cy="117.49" r="2.14"/><circle class="cls-3" cx="17.6" cy="122.45" r="2.14"/><circle class="cls-3" cx="27.21" cy="122.45" r="2.14"/><circle class="cls-3" cx="36.82" cy="122.45" r="2.14"/><circle class="cls-3" cx="46.44" cy="122.45" r="2.14"/><circle class="cls-3" cx="22.33" cy="127.36" r="2.14"/><circle class="cls-3" cx="31.95" cy="127.36" r="2.14"/><circle class="cls-3" cx="41.56" cy="127.36" r="2.14"/><circle class="cls-3" cx="17.5" cy="132.32" r="2.14"/><circle class="cls-3" cx="27.11" cy="132.32" r="2.14"/><circle class="cls-3" cx="36.72" cy="132.32" r="2.14"/><circle class="cls-3" cx="46.34" cy="132.32" r="2.14"/><path class="cls-2" d="M107.38,59.84A20.26,20.26,0,0,1,120,67.92c.52.69,5.21,7.15,4.16,14.34"/><path class="cls-2" d="M106.46,64.32a15.61,15.61,0,0,1,9.72,6.24c.41.54,4,5.54,3.23,11.1"/><path class="cls-2" d="M106.91,69.93a8.7,8.7,0,0,1,5.44,3.49,9.19,9.19,0,0,1,1.81,6.21"/><path class="cls-4" d="M325.21,106.06h3.7c5.09,0,7.39,3.89,7.39,9.67s-2.3,9.8-7.39,9.8h-3.7Zm3.6,18.64c4.69,0,6.64-3.83,6.64-9s-1.95-8.85-6.64-8.85H326V124.7Z"/><path class="cls-4" d="M341.93,106.06h.8v19.47h-.8Z"/><path class="cls-4" d="M353.11,106.06h.69l5.9,19.47h-.85l-3.45-11.68c-.69-2.36-1.29-4.37-1.89-6.79h-.1c-.6,2.42-1.2,4.43-1.9,6.79L348,125.53h-.8Zm-3.35,11.68h7.32v.82h-7.32Z"/><path class="cls-4" d="M362.83,115.73c0-6.13,2.85-10,7.2-10a5.49,5.49,0,0,1,4.4,2.3l-.5.65a4.71,4.71,0,0,0-3.9-2.06c-3.95,0-6.35,3.54-6.35,9.14S366,125,369.83,125a5.22,5.22,0,0,0,3.95-1.59V117h-4.1v-.82h4.9v7.55a5.9,5.9,0,0,1-4.8,2.18C365.58,125.88,362.83,121.87,362.83,115.73Z"/><path class="cls-4" d="M380.66,106.06h.85l7.29,14.27,1.9,3.84h.1c-.05-1.89-.1-3.66-.1-5.49V106.06h.75v19.47h-.85l-7.29-14.28-1.9-3.84h-.1c.05,1.83.1,3.49.1,5.31v12.81h-.75Z"/><path class="cls-4" d="M397.08,115.73c0-6.13,2.8-10,6.7-10s6.7,3.9,6.7,10-2.8,10.15-6.7,10.15S397.08,121.87,397.08,115.73Zm12.55,0c0-5.6-2.35-9.14-5.85-9.14s-5.85,3.54-5.85,9.14,2.35,9.26,5.85,9.26S409.63,121.34,409.63,115.73Z"/><path class="cls-4" d="M414.81,122.93l.55-.65A6.12,6.12,0,0,0,420.3,125a4,4,0,0,0,4.35-4.18c0-2.6-1.4-3.43-3-4.31l-2.55-1.36c-1.39-.73-3.34-1.88-3.34-4.77a4.49,4.49,0,0,1,4.65-4.67,5.77,5.77,0,0,1,4.49,2.3l-.5.65a4.93,4.93,0,0,0-4-2.06,3.57,3.57,0,0,0-3.85,3.72c0,2.41,1.72,3.33,2.9,4l2.55,1.36c1.82,1,3.49,2.12,3.49,5.13a4.92,4.92,0,0,1-5.15,5.13A6.64,6.64,0,0,1,414.81,122.93Z"/><path class="cls-4" d="M433.83,106.88h-5.35v-.82H440v.82h-5.35v18.65h-.8Z"/><path class="cls-4" d="M445,106.06h.8v19.47H445Z"/><path class="cls-4" d="M451.38,115.73c0-6.13,2.75-10,6.95-10a5.24,5.24,0,0,1,4.2,2.3l-.5.65a4.53,4.53,0,0,0-3.7-2.06c-3.8,0-6.1,3.54-6.1,9.14s2.3,9.26,6,9.26a5.18,5.18,0,0,0,4.3-2.47l.5.59a5.75,5.75,0,0,1-4.85,2.77C454.13,125.88,451.38,121.87,451.38,115.73Z"/><path class="cls-4" d="M473.68,122.93l.55-.65a6.14,6.14,0,0,0,4.95,2.71,4,4,0,0,0,4.35-4.18c0-2.6-1.4-3.43-3-4.31l-2.55-1.36c-1.4-.73-3.35-1.88-3.35-4.77a4.49,4.49,0,0,1,4.65-4.67,5.78,5.78,0,0,1,4.5,2.3l-.5.65a4.94,4.94,0,0,0-4-2.06,3.57,3.57,0,0,0-3.85,3.72c0,2.41,1.72,3.33,2.9,4l2.55,1.36c1.82,1,3.5,2.12,3.5,5.13a4.92,4.92,0,0,1-5.15,5.13A6.64,6.64,0,0,1,473.68,122.93Z"/><path class="cls-4" d="M491.9,117.5,487,106.06h.85l2.65,6.31c.59,1.42,1.14,2.77,1.79,4.19h.1c.65-1.42,1.3-2.77,1.85-4.19l2.65-6.31h.8L492.7,117.5v8h-.8Z"/><path class="cls-4" d="M500.33,122.93l.55-.65a6.14,6.14,0,0,0,4.95,2.71,4,4,0,0,0,4.35-4.18c0-2.6-1.4-3.43-3.05-4.31l-2.55-1.36c-1.4-.73-3.35-1.88-3.35-4.77a4.49,4.49,0,0,1,4.65-4.67,5.78,5.78,0,0,1,4.5,2.3l-.5.65a4.94,4.94,0,0,0-4-2.06,3.57,3.57,0,0,0-3.85,3.72c0,2.41,1.72,3.33,2.9,4l2.55,1.36c1.82,1,3.5,2.12,3.5,5.13a4.92,4.92,0,0,1-5.15,5.13A6.64,6.64,0,0,1,500.33,122.93Z"/><path class="cls-4" d="M519.35,106.88H514v-.82H525.5v.82h-5.35v18.65h-.8Z"/><path class="cls-4" d="M530.48,106.06h8.85v.82h-8.05v7.85H538v.83h-6.75v9.14h8.3v.83h-9.1Z"/><path class="cls-4" d="M545,106.06h1.3l3.55,11.8,1.35,4.42h.1c.45-1.47.85-3,1.3-4.42l3.55-11.8h1.3v19.47h-.8V112c0-1.54,0-3.48.1-5.08h-.1l-1.27,4.31-3.73,12.15h-.85L547,111.19l-1.3-4.31h-.1c0,1.6.1,3.54.1,5.08v13.57H545Z"/><line class="cls-5" x1="316" y1="122.4" x2="162" y2="122.4"/><line class="cls-5" x1="316" y1="109.4" x2="162.5" y2="109.4"/><text class="cls-6" transform="translate(154 77.77) scale(0.84 1)">VAG-COM</text><rect class="cls-7" x="334.5" y="44.9" width="33" height="9"/></g></g></svg>